<?xml version="1.0" encoding="UTF-8"?> <!-- Generator: Adobe Illustrator 22.1.0, SVG Export Plug-In . SVG Version: 6.00 Build 0) --> <svg xmlns="http://www.w3.org/2000/svg" xmlns:xlink="http://www.w3.org/1999/xlink" x="0px" y="0px" viewBox="0 0 139.7 45.4" style="enable-background:new 0 0 139.7 45.4;" xml:space="preserve"> <style type="text/css"> .st0{fill:#064F8C;} .st1{fill:#249847;} .st2{fill:#BE2128;} .st3{fill:#172C36;} .st4{fill:#CDCDCE;} </style> <g id="Layer_2"> </g> <g id="Layer_1"> <g id="Layer_2_2_"> </g> <polygon class="st0" points="21.3,3.8 3.6,38.8 22.9,22.4 "></polygon> <polygon class="st1" points="38.6,39.9 14.8,30.3 3.5,39.9 "></polygon> <polygon class="st2" points="39.8,39.6 22.1,4.4 24.7,33.5 "></polygon> <g> <g> <path class="st3" d="M48.8,24.5c-0.5,2.2-0.2,4,0.8,5.4c1,1.4,2.6,2.1,4.7,2.1c0.9,0,1.8-0.1,2.7-0.3c0.9-0.2,1.6-0.4,2.1-0.6 l-0.5,3.4c-0.8,0.2-1.6,0.4-2.4,0.5c-0.8,0.1-1.7,0.2-2.7,0.2c-3.6,0-6.2-0.9-7.8-2.8c-1.6-1.8-2-4.4-1.3-7.8 c0.7-3.4,2.3-6.1,4.7-8.1c2.4-2,5.4-3,8.9-3c1.1,0,2,0.1,2.8,0.3c0.8,0.2,1.5,0.4,2,0.6L61.7,18c-0.5-0.4-1.2-0.6-1.9-0.8 c-0.7-0.2-1.5-0.3-2.3-0.3c-2.1,0-4,0.7-5.6,2.1C50.3,20.4,49.3,22.2,48.8,24.5z"></path> </g> <g> <path class="st3" d="M82.7,13.9h6.7l-4.4,20.9h-4l3.7-17.3l-9.4,17.3h-4l-2-17.4l-3.7,17.4h-4L66,13.9h6.7l1.6,15.9L82.7,13.9z"></path> </g> <g> <path class="st3" d="M99.2,32.3c-0.9,1.1-1.8,1.9-2.7,2.3c-1,0.4-1.8,0.6-2.7,0.6c-1.6,0-2.8-0.4-3.6-1.3c-0.8-0.9-1-2-0.8-3.2 c0.4-1.7,1.3-3.1,2.7-4c1.5-0.9,3.4-1.3,5.9-1.3h2.5l0.1-0.3c0.2-1.1,0.1-1.9-0.4-2.3c-0.5-0.4-1.3-0.7-2.4-0.7 c-0.8,0-1.7,0.2-2.6,0.5c-0.9,0.3-1.7,0.7-2.4,1.3l0.6-3.5c0.6-0.3,1.5-0.5,2.7-0.8c1.2-0.2,2.2-0.4,3-0.4c2.3,0,3.9,0.5,4.7,1.6 c0.8,1.1,1,2.8,0.5,5.1l-0.9,4.1c-0.3,1.4-0.5,2.5-0.6,3.5c-0.1,1-0.2,1.5-0.2,1.5h-3.6c0,0,0-0.2,0-0.7 C98.9,33.6,99,33,99.2,32.3z M99.9,28l0.1-0.3h-1.8c-1.5,0-2.6,0.3-3.4,0.7c-0.8,0.4-1.3,1-1.4,1.9c-0.1,0.6,0,1.1,0.3,1.5 c0.3,0.3,0.9,0.5,1.8,0.5c1.2,0,2.2-0.4,3-1.3C99.1,30.2,99.6,29.2,99.9,28z"></path> </g> <g> <path class="st3" d="M110.9,12.4h4l-2.8,13.3l6.2-6.3h4.8l-7.2,6.9l4.7,8.5h-5.1l-3.6-7.6l-1.6,7.6h-4L110.9,12.4z"></path> </g> <g> <path class="st3" d="M135.3,34c-0.8,0.4-1.6,0.7-2.5,0.9c-0.9,0.2-1.8,0.3-2.9,0.3c-2.7,0-4.6-0.7-5.7-2.1 c-1.1-1.4-1.4-3.4-0.9-6c0.5-2.4,1.6-4.4,3.2-5.8c1.6-1.5,3.5-2.2,5.7-2.2c2.6,0,4.3,0.8,5.1,2.4c0.8,1.6,0.9,3.9,0.2,6.9h-10.7 c0,1.1,0.1,1.9,0.5,2.5c0.6,0.9,1.6,1.4,3.1,1.4c1.1,0,2.2-0.2,3.2-0.6c1.1-0.4,1.8-0.7,2.2-1L135.3,34z M127.4,25.6h6.9 c0.2-1.2,0.1-2.1-0.4-2.7c-0.4-0.6-1.2-0.9-2.2-0.9c-1.2,0-2.2,0.4-3,1.3C128.3,23.9,127.8,24.7,127.4,25.6z"></path> </g> </g> <g> <polygon class="st4" points="23,23.3 15.4,29.8 23.9,33.2 "></polygon> </g> </g> </svg> 